<?xml version="1.0" encoding="utf-8"?>
<!-- Generator: Adobe Illustrator 18.0.0, SVG Export Plug-In . SVG Version: 6.00 Build 0)  -->
<!DOCTYPE svg PUBLIC "-//W3C//DTD SVG 1.1//EN" "http://www.w3.org/Graphics/SVG/1.1/DTD/svg11.dtd">
<svg version="1.1" id="Layer_1" xmlns="http://www.w3.org/2000/svg" xmlns:xlink="http://www.w3.org/1999/xlink" x="0px" y="0px"
	 viewBox="0 0 144 72" enable-background="new 0 0 144 72" xml:space="preserve">
<g>
	<polygon fill="#0E7DB3" points="27.3,38.1 33.3,37.9 33.3,35.8 27.5,36 	"/>
	<polygon fill="#0E7DB3" points="25.5,36.1 19.9,36.2 19.5,38.3 25.3,38.1 	"/>
	<polygon fill="#0E7DB3" points="26.4,29 21.3,29.2 21,30.8 26.2,30.6 	"/>
	<path fill="#0E7DB3" d="M10.3,36.5c-0.9,0-1.4-0.7-1.1-1.7l0.7-2c0.3-0.9,1.3-1.6,2.1-1.6l7.1-0.3l0.4-1.6l-7.1,0.3
		c-1.7,0.1-3.6,1.5-4.2,3.2L7.4,35c-0.7,1.9,0.2,3.6,2.1,3.5l8.1-0.2l0.5-2L10.3,36.5z"/>
	<polygon fill="#046EAB" points="28,30.5 33.3,30.3 33.3,28.7 28.1,29 	"/>
	<path fill="#0E7DB3" d="M42.4,28.3l-7.3,0.3l0,1.6l7.3-0.3c1,0,1.9,0.7,2.1,1.6l0.4,2.1c0.2,1-0.5,1.9-1.6,1.9l-8,0.2l0.1,2.1
		l8.5-0.2c2.2-0.1,3.6-1.9,3.2-3.9l-0.5-2.4C46.1,29.6,44.3,28.3,42.4,28.3z"/>
	<path fill="#0E7DB3" d="M12.2,32.9c-0.2,0-0.5,0.2-0.6,0.5l-0.3,0.8c-0.1,0.3,0,0.5,0.3,0.5l6.8-0.2l0.4-1.9L12.2,32.9z"/>
	<path fill="#0E7DB3" d="M42.3,33.7c0.3,0,0.5-0.3,0.4-0.6l-0.1-0.9c0-0.3-0.3-0.5-0.6-0.5L35.2,32l0.1,1.9L42.3,33.7z"/>
	<polygon fill="#0E7DB3" points="20.7,32.5 20.3,34.5 25.8,34.3 26,32.4 	"/>
	<polygon fill="#0E7DB3" points="27.6,34.2 33.3,34 33.3,32.1 27.8,32.3 	"/>
	<polygon fill="#3A99D5" points="28.2,28.2 33.3,27.9 33.3,26.7 28.3,26.9 	"/>
	<path fill="#3A99D5" d="M16.5,27.5c-0.6,0-1-0.4-0.8-1l0.4-1.2c0.2-0.5,0.8-1,1.4-1l3.4-0.2l0.2-1l-3.5,0.2c-1.2,0.1-2.4,1-2.8,2
		l-0.5,1.4c-0.4,1.2,0.3,2.1,1.6,2.1l3.8-0.2l0.3-1.2L16.5,27.5z"/>
	<polygon fill="#3A99D5" points="26.6,27 21.7,27.2 21.5,28.5 26.4,28.2 	"/>
	<path fill="#3A99D5" d="M38,23.1c0.7,0,1.2,0.4,1.3,0.9l0.1,1.3c0.1,0.6-0.5,1.1-1.1,1.2L35,26.6l0,1.2l3.5-0.2
		c1.4-0.1,2.4-1.1,2.3-2.3l-0.2-1.4c-0.1-1.1-1.3-1.9-2.6-1.8l-3.2,0.2l0,1L38,23.1z"/>
	<polygon fill="#3A99D5" points="27,23.7 27.1,22.7 22.6,22.9 22.4,23.9 	"/>
	<polygon fill="#3A99D5" points="33.3,23.4 33.3,22.3 28.6,22.6 28.6,23.6 	"/>
	<polygon fill="#3A99D5" points="22.1,25 21.9,26.2 26.7,25.9 26.8,24.8 	"/>
	<polygon fill="#3A99D5" points="33.3,25.6 33.3,24.4 28.5,24.7 28.4,25.9 	"/>
	<path fill="#3A99D5" d="M37.7,25.4c0.2,0,0.4-0.2,0.4-0.4l0-0.3c0-0.2-0.2-0.4-0.5-0.4l-2.7,0.1l0,1.2L37.7,25.4z"/>
	<path fill="#3A99D5" d="M17.6,25.2c-0.2,0-0.4,0.2-0.5,0.4L17,26c-0.1,0.2,0.1,0.4,0.3,0.4l3-0.1l0.3-1.2L17.6,25.2z"/>
	<path fill="#035AA4" d="M8.9,49.1C8,49.1,7.6,48,8,46.6l0.9-2.8c0.4-1.2,1.4-2.2,2.3-2.2l5.7-0.1l0.5-2.1l-5.7,0.1
		c-1.7,0-3.6,1.9-4.4,4.2l-1.1,3.1c-0.9,2.7-0.2,5.1,1.8,5.1l6.7,0l0.6-2.9L8.9,49.1z"/>
	<polygon fill="#035AA4" points="27,41.3 33.3,41.2 33.3,39 27.2,39.2 	"/>
	<polygon fill="#035AA4" points="26.4,49 26.1,51.9 33.2,51.9 33.2,48.9 	"/>
	<path fill="#035AA4" d="M41,41.1c1,0,1.9,1,2,2.2l0.4,3c0.2,1.4-0.5,2.6-1.6,2.6l-6.2,0l0.1,3l6.7,0c2.2,0,3.6-2.5,3.2-5.4L45,43.1
		c-0.4-2.5-2.2-4.4-4.1-4.3L35.4,39l0.1,2.2L41,41.1z"/>
	<polygon fill="#035AA4" points="17.4,49 16.8,51.9 23.7,51.9 24.1,49 	"/>
	<polygon fill="#035AA4" points="25.2,39.2 19.3,39.3 18.9,41.5 24.9,41.4 	"/>
	<path fill="#035AA4" d="M40.8,46.3c0.3,0,0.6-0.4,0.5-0.8l-0.1-1.2c0-0.4-0.3-0.8-0.7-0.7l-5.1,0.1l0.1,2.7L40.8,46.3z"/>
	<polygon fill="#035AA4" points="18.4,43.9 17.9,46.5 24.4,46.4 24.7,43.8 	"/>
	<polygon fill="#035AA4" points="33.3,46.3 33.3,43.6 26.8,43.7 26.6,46.4 	"/>
	<path fill="#035AA4" d="M11.2,44c-0.3,0-0.6,0.3-0.7,0.7l-0.3,1.1c-0.1,0.4,0,0.8,0.3,0.8l5.3-0.1l0.6-2.6L11.2,44z"/>
</g>
<text transform="matrix(1 0 0 1 53.1083 42.2214)" fill="#035AA4" font-family="'MyriadPro-Bold'" font-size="20.1737">LUROCKS</text>
</svg>
