<?xml version="1.0" encoding="utf-8"?>
<!-- Generator: Adobe Illustrator 18.0.0, SVG Export Plug-In . SVG Version: 6.00 Build 0)  -->
<!DOCTYPE svg PUBLIC "-//W3C//DTD SVG 1.1//EN" "http://www.w3.org/Graphics/SVG/1.1/DTD/svg11.dtd">
<svg version="1.1" id="Layer_5" xmlns="http://www.w3.org/2000/svg" xmlns:xlink="http://www.w3.org/1999/xlink" x="0px" y="0px"
	 viewBox="0 0 612 792" enable-background="new 0 0 612 792" xml:space="preserve">
<g>
	<polygon fill="#027CB2" points="299.5,286.8 342.8,285.6 342.8,270.5 300.8,271.8 	"/>
	<polygon fill="#027CB2" points="286.7,272.2 245.8,273.4 242.9,288.3 284.9,287.2 	"/>
	<polygon fill="#027CB2" points="292.5,221 255.8,222.5 253.5,234.1 291.2,232.6 	"/>
	<path fill="#027CB2" d="M176,275.5c-6.8,0.2-10.3-5.4-7.8-12.4l5.3-14.6c2.3-6.3,9.3-11.6,15.6-11.9l51.8-2.1l2.6-11.5l-51.7,2.2
		c-12.3,0.5-26.1,10.6-30.9,23l-6.4,16.4c-5.5,14,1.2,25.9,15.2,25.5l59-1.5l3.3-14.8L176,275.5z"/>
	<polygon fill="#006DAA" points="304.2,232 342.9,230.5 342.9,218.8 305.2,220.4 	"/>
	<path fill="#027CB2" d="M409.2,216l-53.3,2.3l0.3,11.7l53.4-2.1c7.1-0.3,13.8,4.8,15,11.4l2.7,15.3c1.3,7.3-4,13.6-11.7,13.8
		l-58.2,1.7l0.4,15.2l61.6-1.6c16-0.4,26.5-13.6,23.4-28.4l-3.6-17.2C436.4,225,423,215.4,409.2,216z"/>
	<path fill="#027CB2" d="M189.6,248.8c-1.8,0.1-3.8,1.8-4.5,3.9l-2,6c-0.7,2.2,0.2,3.9,2,3.8l49.9-1.7l3.1-13.8L189.6,248.8z"/>
	<path fill="#027CB2" d="M408.7,255.1c2-0.1,3.4-2,3.1-4.2l-0.9-6.2c-0.3-2.2-2.2-3.9-4.1-3.8l-50.2,1.8l0.4,14.1L408.7,255.1z"/>
	<polygon fill="#027CB2" points="251.1,246.6 248.3,260.5 288.2,259.1 289.8,245.2 	"/>
	<polygon fill="#027CB2" points="301.9,258.7 342.8,257.3 342.8,243.2 303.1,244.7 	"/>
	<polygon fill="#259CE5" points="305.7,214.6 342.9,213 342.9,204.1 306.5,205.8 	"/>
	<path fill="#259CE5" d="M220.4,209.8c-4.6,0.2-7.4-3.1-6.1-7.4l2.8-9.1c1.2-4,5.8-7.4,10.2-7.6l24.8-1.3l1.6-7.3l-25.2,1.4
		c-8.6,0.5-17.6,7-20.2,14.9l-3.3,10.2c-2.8,8.6,2.5,15.5,12,15.1l27.7-1.2l2-8.8L220.4,209.8z"/>
	<polygon fill="#259CE5" points="294.2,206.3 258.7,208 256.9,216.8 293.2,215.2 	"/>
	<path fill="#259CE5" d="M377.6,177.8c4.7-0.2,9,2.8,9.4,6.9l1,9.3c0.5,4.3-3.3,8.2-8.3,8.4l-24.3,1.1l0.3,8.9l25.8-1.1
		c10.3-0.5,17.8-8.3,16.6-17.1l-1.4-10.4c-1.1-8-9.5-13.9-18.8-13.4l-23.3,1.3l0.2,7.4L377.6,177.8z"/>
	<polygon fill="#259CE5" points="297,182 297.8,174.7 264.9,176.5 263.4,183.8 	"/>
	<polygon fill="#259CE5" points="342.9,179.6 342.9,172.3 309.2,174.1 308.6,181.4 	"/>
	<polygon fill="#259CE5" points="261.9,191.6 260.2,200.2 295.1,198.5 296.1,189.9 	"/>
	<polygon fill="#259CE5" points="342.9,196.2 342.9,187.5 307.9,189.3 307.2,197.9 	"/>
	<path fill="#259CE5" d="M375.1,194.6c1.7-0.1,3-1.6,2.9-3.3l-0.2-2.5c-0.1-1.7-1.6-3-3.3-2.9l-19.5,1l0.2,8.6L375.1,194.6z"/>
	<path fill="#259CE5" d="M229,193.3c-1.6,0.1-3.2,1.5-3.7,3.1l-0.7,2.5c-0.5,1.7,0.5,3,2.1,2.9l21.8-1.1l1.9-8.5L229,193.3z"/>
	<path fill="#0059A3" d="M165.6,366.9c-6.8,0-9.8-8.1-6.7-17.8l6.6-20.3c2.8-8.7,10.1-15.8,16.4-15.9l41.6-0.8l3.5-15.6l-41.5,1
		c-12.1,0.3-26.5,13.7-32.3,30.7l-7.8,22.7c-6.8,19.7-1.3,36.8,12.8,36.8l48.5-0.1l4.7-21L165.6,366.9z"/>
	<polygon fill="#0059A3" points="297.5,310.5 342.8,309.6 342.8,293.6 298.8,294.7 	"/>
	<polygon fill="#0059A3" points="292.7,366 290.8,387.5 342.7,387.4 342.7,365.7 	"/>
	<path fill="#0059A3" d="M399.3,308.5c7-0.1,13.7,7,14.9,16.2l2.8,21.5c1.3,10.3-3.9,19-11.6,19.1l-45.2,0.3l0.6,21.8l48.4-0.1
		c16.1,0,26.4-18.5,23.1-39.6l-3.8-24.2c-2.8-18-16.1-31.7-29.6-31.3l-40.8,1l0.5,16.1L399.3,308.5z"/>
	<polygon fill="#0059A3" points="227.5,366.5 223.3,387.5 273.4,387.5 275.9,366.2 	"/>
	<polygon fill="#0059A3" points="284,295 241.3,296.1 238.2,311.7 282.2,310.9 	"/>
	<path fill="#0059A3" d="M397.7,346.4c2.4,0,4.1-2.7,3.7-5.9l-0.9-8.7c-0.3-3-2.5-5.5-4.8-5.5L359,327l0.6,19.8L397.7,346.4z"/>
	<polygon fill="#0059A3" points="234.8,329 231,348.3 278,347.8 280.2,328.3 	"/>
	<polygon fill="#0059A3" points="342.7,347 342.8,327.3 296,328 294.3,347.6 	"/>
	<path fill="#0059A3" d="M182,329.8c-2.1,0-4.5,2.4-5.3,5.3l-2.5,8.3c-0.9,3,0.1,5.5,2.2,5.5l38.9-0.4l4.3-19.2L182,329.8z"/>
</g>
<text transform="matrix(1 0 0 1 -5.7629 538.3085)" fill="#0059A3" font-family="'MyriadPro-Bold'" font-size="146.8467">LUROCKS</text>
</svg>
